<svg version="1.1" viewBox="0 0 1920 410" xmlns="http://www.w3.org/2000/svg"><path d="m363 2e-5c-9.34 0-18.2 7.52-19.8 16.9l-54 306c-1.65 9.35 4.54 16.9 13.9 16.9h221c9.34 0 18.2-7.52 19.8-16.9l12-68.2h-170l30-170h170l12-68.2c1.65-9.35-4.54-16.9-13.9-16.9z" fill="#f44336"/><path d="m1849 0c-9.34 0-16.9 0-25.4 16.9l-16.8 33.1h33.7l27.9-33.1c14.2-16.9 6.71-16.9-2.62-16.9zm-778 70.2c-9.34 0-18.2 7.52-19.8 16.9l-41.6 236c-1.65 9.35 4.54 16.9 13.9 16.9h169c9.34 0 18.2-7.52 19.8-16.9l23.8-135c1.65-9.35-4.54-16.9-13.9-16.9h-67.4c-9.34 0-18.2 7.52-19.8 16.9l-5.94 33.7c-1.65 9.35 4.54 16.9 13.9 16.9h16.9l-5.94 33.7h-67.4l23.8-135h135l8.91-50.6c1.65-9.35-4.54-16.9-13.9-16.9zm-222 0c-9.34 0-18.2 7.52-19.8 16.9l-41.6 236c-1.65 9.35 4.54 16.9 13.9 16.9h169c9.34 0 18.2-7.52 19.8-16.9l41.6-236c1.65-9.35-4.54-16.9-13.9-16.9zm38.7 67.5h67.4l-23.8 135h-67.4zm-261-67.5c-9.34 0-18.2 7.52-19.8 16.9l-41.6 236c-1.65 9.35 4.54 16.9 13.9 16.9h169c9.34 0 18.2-7.52 19.8-16.9l20.8-118-16.2-.068 20.8-118c1.65-9.35-4.54-16.9-13.9-16.9zm38.7 67.5h51.2l-5.94 33.7h-51.2zm-17.8 101h67.4l-5.94 33.7h-67.4zm1091-169c-9.34 0-18.2 7.52-19.8 16.9l-41.6 236c-1.65 9.35 4.54 16.9 13.9 16.9h50.6l17.8-101h67.4l-17.8 101h50.6c9.34 0 18.2-7.52 19.8-16.9l41.6-236c1.65-9.35-4.54-16.9-13.9-16.9zm38.7 67.5h67.4l-5.94 33.7h-67.4zm-261-67.5c-9.34 0-18.2 7.52-19.8 16.9l-8.64 50.6h67.1l-35.7 202h67.4l35.7-202h67.4l8.91-50.6c1.65-9.35-4.54-16.9-13.9-16.9zm-222 0c-9.34 0-18.2 7.52-19.8 16.9l-41.6 236c-1.65 9.35 4.54 16.9 13.9 16.9h169c9.34 0 18.2-7.52 19.8-16.9l41.6-236c1.65-9.35-4.54-16.9-13.9-16.9zm38.7 67.5h67.4l-23.8 135h-67.4z" fill="#212121"/><path d="m1842 360c-9.31 3e-5-17.8 5.28-22.1 13.7h-1817l-3.99 22.9h1821c4.24 8.39 12.8 13.7 22.1 13.7 13.7 0 24.8-11.2 24.8-25.1s-11.1-25.1-24.8-25.1z" fill="#e1e1e1"/><path d="m92.7 2e-5c-11.8 0-22.9 9.48-25 21.3l-53.2 302c-1.65 9.35 4.54 16.9 13.9 16.9h68.1l22.5-128h170l34.5-196c1.65-9.35-4.54-16.9-13.9-16.9zm48.7 85h84.9l-7.49 42.5h-84.9z" fill="#ffc107"/></svg>
