<svg version="1.1" viewBox="0 0 1920 410" xmlns="http://www.w3.org/2000/svg"><path d="m93.6 3e-5c-11.8 0-22.9 9.47-25 21.2l-53.1 302c-1.64 9.34 4.54 16.9 13.9 16.9h68l22.4-127h170l34.4-195c1.64-9.34-4.54-16.9-13.9-16.9zm48.7 84.9h84.9l-7.48 42.5h-84.9z" fill="#ffa000"/><path d="m364 3e-5c-9.33 0-18.2 7.52-19.8 16.9l-53.9 306c-1.64 9.34 4.54 16.9 13.9 16.9h221c9.33 0 18.2-7.52 19.8-16.9l12-68.1h-170l29.9-170h170l12-68.1c1.64-9.34-4.54-16.9-13.9-16.9z" fill="#d32f2f"/><path d="m1848 0c-9.33 0-16.8 0-25.4 16.9l-16.7 33h33.7l27.9-33c14.2-16.8 6.71-16.8-2.62-16.8zm-777 70.1c-9.33 0-18.2 7.52-19.8 16.9l-41.6 236c-1.64 9.34 4.54 16.9 13.9 16.9h168c9.33 0 18.2-7.52 19.8-16.9l23.7-135c1.64-9.34-4.54-16.9-13.9-16.9h-67.3c-9.33 0-18.2 7.52-19.8 16.9l-5.94 33.7c-1.64 9.34 4.54 16.9 13.9 16.9h16.8l-5.94 33.7h-67.3l23.7-135h135l8.91-50.6c1.64-9.34-4.54-16.9-13.9-16.9zm-222 0c-9.33 0-18.2 7.52-19.8 16.9l-41.6 236c-1.64 9.34 4.54 16.9 13.9 16.9h168c9.33 0 18.2-7.52 19.8-16.9l41.6-236c1.64-9.34-4.54-16.9-13.9-16.9zm38.6 67.4h67.3l-23.7 135h-67.3zm-261-67.4c-9.33 0-18.2 7.52-19.8 16.9l-41.6 236c-1.64 9.34 4.54 16.9 13.9 16.9h168c9.33 0 18.2-7.52 19.8-16.9l20.8-118-16.2-.0679 20.8-118c1.64-9.34-4.54-16.9-13.9-16.9zm38.6 67.4h51.2l-5.94 33.7h-51.2zm-17.8 101h67.3l-5.94 33.7h-67.3zm1090-169c-9.33 0-18.2 7.52-19.8 16.9l-41.6 236c-1.64 9.34 4.54 16.9 13.9 16.9h50.5l17.8-101h67.3l-17.8 101h50.5c9.33 0 18.2-7.52 19.8-16.9l41.6-236c1.64-9.34-4.54-16.9-13.9-16.9zm38.6 67.4h67.3l-5.94 33.7h-67.3zm-261-67.4c-9.33 0-18.2 7.52-19.8 16.9l-8.63 50.6h67.1l-35.6 202h67.3l35.6-202h67.3l8.91-50.6c1.64-9.34-4.54-16.9-13.9-16.9zm-222 0c-9.33 0-18.2 7.52-19.8 16.9l-41.6 236c-1.64 9.34 4.54 16.9 13.9 16.9h168c9.33 0 18.2-7.52 19.8-16.9l41.6-236c1.64-9.34-4.54-16.9-13.9-16.9zm38.6 67.4h67.3l-23.7 135h-67.3z" fill="#dedede"/><path d="m1841 360c-9.3 2e-5-17.8 5.27-22.1 13.7h-1815l-3.98 22.9h1819c4.24 8.38 12.8 13.7 22.1 13.7 13.7 0 24.8-11.2 24.8-25.1s-11.1-25.1-24.8-25.1z" fill="#1e1e1e"/></svg>
