<svg version="1.1" viewBox="0 0 1408 256" xmlns="http://www.w3.org/2000/svg"><path id="P" d="m51 0c-8.14622 0-17.43728 8-18.58212 16l-32.05657 224c-1.14485 8 5.85651 16 14.00273 16h48.87727l13.73848-96h114.04697c8.14621 0 17.43727-8 18.58212-16l18.31808-128c1.14485-8-5.85651-16-14.00272-16zm39.71828 64h65.16969l-4.57949 32h-65.1697z" fill="#ffc107"/><path id="C" d="m262.80151 0c-8.14621 0-17.43727 8-18.58212 16l-32.05657 224c-1.14485 8 5.85652 16 14.00273 16h162.92424c8.14621 0 17.43727-8 18.58212-16l6.86929-48h-130.33939l18.31798-128h130.33939l6.86929-48c1.14485-8-5.85651-16-14.00272-16z" fill="#f44336"/><g fill="#212121"><path id="b" d="m465.44403 64c-8.14621 0-17.43727 8-18.58212 16l-22.89758 160c-1.14484 8 5.85652 16 14.00273 16h114.04697c8.14621 0 17.43727-8 18.58212-16l11.44879-80h-16.29243l11.44879-80c1.14485-8-5.85651-16-14.00273-16zm25.71566 48h36.65795l-3.43465 24h-36.65795zm-10.30394 72h48.87727l-3.43465 24h-48.87727z"/><path id="o" d="m628.36827 64c-8.14621 0-17.43727 8-18.58212 16l-22.89758 160c-1.14485 8 5.85652 16 14.00273 16h114.04697c8.14621 0 17.43727-8 18.58212-16l22.89758-160c1.14484-8-5.85652-16-14.00273-16zm25.71566 48h48.87727l-13.73859 96h-48.87727z"/><path id="g" d="m791.29251 64c-8.14621 0-17.43727 8-18.58212 16l-22.89758 160c-1.14485 8 5.85652 16 14.00273 16h114.04697c8.14621 0 17.43727-8 18.58212-16l12.59364-88c1.14484-8-5.85642-16-14.00263-16h-40.73106c-8.14621 0-17.43737 8-18.58222 16l-2.2897 16c-1.14495 8 5.85641 16 14.00263 16h8.14621l-3.43465 24h-48.87727l13.73859-96h97.75454l4.5795-32c1.14484-8-5.85652-16-14.00273-16z"/><path d="m954.21675 64c-8.14621 0-17.43727 8-18.58212 16l-22.89758 160c-1.14485 8 5.85652 16 14.00273 16h114.04702c8.1462 0 17.4372-8 18.5821-16l22.8976-160c1.1448-8-5.8566-16-14.0028-16zm25.71566 48h48.87729l-13.7386 96h-48.87728z"/><path id="t" d="m1117.141 64c-8.1462 0-17.4373 8-18.5821 16l-4.5795 32h48.8773l-20.6078 144h48.8773l20.6077-144h48.8773l4.5795-32c1.1448-8-5.8565-16-14.0027-16z"/><path id="a" d="m1280.0652 64c-8.1462 0-17.4372 8-18.5821 16l-22.8976 160c-1.1448 8 5.8566 16 14.0028 16h32.5848l10.3039-72h48.8772l-10.3038 72h32.5848c8.1463 0 17.4373-8 18.5822-16l22.8975-160c1.1449-8-5.8565-16-14.0027-16zm25.7157 48h48.8773l-3.4347 24h-48.8772z"/></g></svg>
